HIERARCHY
ROOT Pelvis
{
	OFFSET 0.000000 0.000000 0.000000
	CHANNELS 6 Xposition Yposition Zposition Zrotation Yrotation Xrotation 
	JOINT Left_hip
	{
		OFFSET 0.067986 -0.089946 -0.007639
		CHANNELS 3 Zrotation Yrotation Xrotation
		JOINT Left_knee
		{
			OFFSET 0.036308 -0.388288 -0.004016
			CHANNELS 3 Zrotation Yrotation Xrotation
			JOINT Left_ankle
			{
				OFFSET -0.012264 -0.413250 -0.042878
				CHANNELS 3 Zrotation Yrotation Xrotation
				JOINT Left_foot
				{
					OFFSET 0.024043 -0.058563 0.118570
					CHANNELS 3 Zrotation Yrotation Xrotation
					End Site
					{
						OFFSET 0.000000 0.000000 0.000000
					}
				}
			}
		}
	}
	JOINT Right_hip
	{
		OFFSET -0.065648 -0.089374 -0.003858
		CHANNELS 3 Zrotation Yrotation Xrotation
		JOINT Right_knee
		{
			OFFSET -0.042132 -0.395021 -0.006361
			CHANNELS 3 Zrotation Yrotation Xrotation
			JOINT Right_ankle
			{
				OFFSET 0.014805 -0.413264 -0.041054
				CHANNELS 3 Zrotation Yrotation Xrotation
				JOINT Right_foot
				{
					OFFSET -0.021758 -0.049013 0.121832
					CHANNELS 3 Zrotation Yrotation Xrotation
					End Site
					{
						OFFSET 0.000000 0.000000 0.000000
					}
				}
			}
		}
	}
	JOINT Spine1
	{
		OFFSET -0.002755 0.104406 -0.022277
		CHANNELS 3 Zrotation Yrotation Xrotation
		JOINT Spine2
		{
			OFFSET 0.004136 0.129393 -0.002186
			CHANNELS 3 Zrotation Yrotation Xrotation
			JOINT Spine3
			{
				OFFSET 0.001906 0.049304 0.025578
				CHANNELS 3 Zrotation Yrotation Xrotation
				JOINT Neck
				{
					OFFSET -0.004620 0.210958 -0.044063
					CHANNELS 3 Zrotation Yrotation Xrotation
					JOINT Head
					{
						OFFSET 0.003833 0.067393 0.052435
						CHANNELS 3 Zrotation Yrotation Xrotation
						End Site
						{
							OFFSET 0.000000 0.000000 0.000000
						}
					}
				}
				JOINT Left_collar
				{
					OFFSET 0.070771 0.116689 -0.037192
					CHANNELS 3 Zrotation Yrotation Xrotation
					JOINT Left_shoulder
					{
						OFFSET 0.080652 0.031596 -0.005617
						CHANNELS 3 Zrotation Yrotation Xrotation
						JOINT Left_elbow
						{
							OFFSET 0.262654 -0.015020 -0.027939
							CHANNELS 3 Zrotation Yrotation Xrotation
							JOINT Left_wrist
							{
								OFFSET 0.250438 0.010062 -0.000990
								CHANNELS 3 Zrotation Yrotation Xrotation
								JOINT Left_palm
								{
									OFFSET 0.081198 -0.010037 -0.013706
									CHANNELS 3 Zrotation Yrotation Xrotation
									End Site
									{
										OFFSET 0.000000 0.000000 0.000000
									}
								}
							}
						}
					}
				}
				JOINT Right_collar
				{
					OFFSET -0.072972 0.115556 -0.040762
					CHANNELS 3 Zrotation Yrotation Xrotation
					JOINT Right_shoulder
					{
						OFFSET -0.082917 0.031841 -0.006673
						CHANNELS 3 Zrotation Yrotation Xrotation
						JOINT Right_elbow
						{
							OFFSET -0.252882 -0.013790 -0.020410
							CHANNELS 3 Zrotation Yrotation Xrotation
							JOINT Right_wrist
							{
								OFFSET -0.255570 0.009163 -0.005138
								CHANNELS 3 Zrotation Yrotation Xrotation
								JOINT Right_palm
								{
									OFFSET -0.080804 -0.007282 -0.010415
									CHANNELS 3 Zrotation Yrotation Xrotation
									End Site
									{
										OFFSET 0.000000 0.000000 0.000000
									}
								}
							}
						}
					}
				}
			}
		}
	}
}
MOTION
Frames: 16
Frame Time: 0.100000
0.000000 0.000000 0.000000 174.575018 22.855778 -13.413269 4.891183 5.796626 3.568134 -2.734862 -18.207658 -2.269253 -4.992220 16.188829 -4.582672 3.759815 -2.184992 -5.672262 -2.943234 -4.596176 2.235097 4.249560 13.848760 2.081636 5.982206 -15.064842 -6.845200 -1.055491 6.586052 3.437697 1.483537 1.705653 3.285339 0.578425 -2.773585 0.385102 1.531630 1.705749 1.515051 -6.910079 0.060321 3.526298 5.956473 1.200463 -16.763145 -2.783468 1.416947 -8.934678 2.901545 1.750282 -13.965553 0.900862 -6.344986 -4.709612 3.025330 -8.721302 27.635161 -5.701802 -8.364071 -8.002312 2.240317 1.622619 -3.049949 -3.396250 -8.043327 -19.695448 -1.235047 8.210808 0.178561 -0.535327 8.683756 28.974624 10.580875 7.435731 -6.925260 
-0.000481 -0.000040 0.000380 174.589415 22.791593 -13.409152 4.882404 5.813783 3.629868 -2.759323 -18.153151 -2.264935 -4.894243 16.166064 -4.587685 3.669892 -2.121614 -5.685891 -2.974820 -4.587102 2.288371 4.250451 13.879338 2.059571 5.968277 -15.014171 -6.855696 -0.997728 6.528590 3.489388 1.491600 1.684968 3.277904 0.605294 -2.780202 0.343617 1.520241 1.700033 1.517047 -6.922254 0.119034 3.620893 5.805270 1.270627 -16.595321 -2.806678 1.515757 -8.948640 2.683507 1.701632 -13.861190 0.920244 -6.401381 -4.626855 3.119415 -8.618509 27.549957 -5.748422 -8.390809 -8.032177 2.297654 1.504244 -3.090439 -3.281512 -7.907481 -19.658008 -1.352102 8.286335 0.149788 -0.775178 8.619472 29.095059 10.685500 7.466423 -7.008844 
-0.001235 -0.000041 0.000643 174.594417 22.817207 -13.421511 4.845111 5.808982 3.667415 -2.783696 -18.184743 -2.225947 -4.872250 16.162339 -4.662195 3.689453 -2.115078 -5.627994 -3.019572 -4.587208 2.321952 4.253407 13.866067 2.112291 5.899646 -15.008474 -6.887659 -0.876668 6.488067 3.521871 1.479756 1.688717 3.270582 0.661219 -2.783224 0.457605 1.528852 1.665972 1.470004 -6.863723 0.098043 3.556373 5.764559 1.299571 -16.585015 -2.958655 1.588509 -8.889120 2.650583 1.718384 -13.794855 0.958139 -6.460657 -4.671648 3.328141 -8.612643 27.449964 -5.802670 -8.427022 -8.078411 2.459284 1.375728 -3.100120 -3.344752 -7.990023 -19.701090 -1.504289 8.402353 -0.283879 -1.081480 8.656698 28.787143 10.790415 7.478843 -7.006293 
-0.001874 -0.000048 0.000676 174.588903 22.875863 -13.367476 4.806136 5.755798 3.629835 -2.801014 -18.113408 -2.241041 -4.825255 16.047748 -4.691790 3.718310 -1.979815 -5.552137 -3.058546 -4.559912 2.311427 4.234703 13.713378 2.086564 5.833749 -14.908859 -6.922304 -0.798342 6.380427 3.666687 1.476743 1.676084 3.244914 0.725468 -2.798087 0.526670 1.527555 1.623002 1.418296 -6.804985 0.075307 3.563113 5.638050 1.419319 -16.538925 -3.379561 1.883867 -8.851909 2.144934 1.692648 -13.667944 1.781832 -7.532005 -5.359456 4.083572 -8.528634 26.854498 -6.102955 -8.563399 -8.139063 2.830492 1.029783 -3.158734 -3.109249 -8.033277 -19.652872 -2.170200 9.658586 -1.110120 -1.802179 8.826715 28.084736 11.111602 7.575856 -7.014531 
-0.002688 -0.000042 0.000570 174.627071 22.829174 -13.281877 4.738964 5.626025 3.587944 -2.826843 -17.676903 -2.249878 -4.753165 15.680978 -4.701610 3.842037 -1.621081 -5.588439 -3.136668 -4.435683 2.229378 4.211030 13.281216 2.127871 5.910976 -14.507935 -7.038703 -1.185255 6.234192 3.918825 1.607809 1.665855 3.274859 0.689891 -2.740995 0.587126 1.444992 1.583174 1.391421 -6.641509 0.008845 3.500856 5.302485 1.585991 -16.434898 -4.331766 2.783408 -8.817671 0.129948 1.799074 -13.340430 4.567565 -11.227948 -7.351699 4.052212 -8.415297 25.016705 -6.724210 -8.719591 -7.973678 3.413384 0.236571 -3.293392 -1.993194 -8.114779 -19.485325 -4.140566 13.284238 -3.026770 -1.717815 8.856986 26.420748 11.550678 7.696056 -6.882136 
-0.003818 0.000008 0.000297 174.758541 22.798767 -13.120845 4.586280 5.287671 3.471326 -2.912651 -16.607754 -2.221023 -4.426947 14.645818 -4.596551 3.792337 -0.501420 -5.560206 -3.336696 -4.147631 2.115933 4.142598 12.231433 2.149849 6.224139 -13.503783 -7.323717 -2.042304 5.564382 4.493359 1.736589 1.664374 3.215330 0.696524 -2.700135 0.694679 1.272994 1.451551 1.432118 -6.265690 0.060539 3.679762 4.781376 1.616504 -16.244798 -5.958504 4.524260 -8.844190 -4.040202 1.994558 -12.291838 10.011280 -17.648560 -10.479711 2.530239 -8.207952 21.950633 -7.695998 -8.879090 -7.867967 4.612119 -1.512605 -3.718312 0.655014 -8.412311 -18.846972 -9.500188 22.466388 -7.187197 -1.253247 8.900108 23.328221 12.540855 7.687973 -6.826959 
-0.004494 0.000187 0.000333 174.887982 22.770137 -12.963196 4.471786 4.697710 3.302573 -3.001933 -14.790235 -2.109019 -3.606349 12.728303 -4.359342 3.234869 1.619961 -5.572656 -3.501794 -3.608152 1.969218 4.038550 10.396461 2.270398 6.749477 -11.802866 -7.836235 -3.325318 4.230942 5.417124 1.580438 1.631177 3.079490 0.959420 -2.670652 0.798194 1.098654 1.124287 1.601874 -5.532586 0.679919 4.132604 3.941310 1.395467 -16.082711 -7.712748 7.418759 -8.630104 -11.368636 2.237392 -9.779283 18.964944 -26.432135 -15.325161 1.607058 -8.235138 16.289016 -9.399997 -8.938610 -8.252235 6.470998 -4.305492 -4.455939 6.726147 -8.073414 -17.131189 -22.127422 36.686623 -18.725887 -2.548031 9.431932 13.941749 14.524004 7.144762 -6.397346 
-0.004620 0.000660 -0.000165 174.966781 22.660746 -12.777759 4.437790 4.019885 2.978692 -3.118969 -12.499898 -1.911465 -2.408257 10.198659 -3.971033 2.108390 4.489235 -5.951719 -3.642778 -3.062349 1.694769 3.933266 8.097478 2.452015 7.365682 -9.404056 -8.298007 -4.578673 2.200874 6.477455 1.167886 1.640218 2.766232 1.481945 -2.542604 1.352805 0.890287 0.801940 1.452196 -4.330609 1.660433 4.844556 2.753072 0.861147 -15.595369 -9.772904 10.369526 -8.169264 -20.909604 2.626654 -5.833034 29.340952 -36.129271 -17.808631 2.279604 -8.826785 13.842519 -10.950731 -9.152621 -9.215040 9.530248 -7.193940 -5.177538 15.014573 -6.927622 -14.325461 -43.447143 50.025665 -35.237679 -5.551452 10.722409 8.024637 16.706964 6.719301 -6.340554 
-0.004925 0.001341 -0.001322 174.968717 22.942862 -12.695343 4.370399 3.281218 2.479927 -3.314585 -10.421355 -1.475269 -1.219754 7.613064 -3.679173 0.936905 7.261320 -6.526612 -3.872747 -2.635306 1.515971 3.858384 5.724839 2.619414 7.889745 -7.182238 -8.632314 -5.726087 0.264148 7.374046 0.590008 1.770168 2.446653 2.067531 -2.486193 2.176693 0.653298 0.505749 0.925689 -3.067992 2.229274 5.593299 2.100153 0.030191 -14.429557 -11.991006 12.239368 -7.328245 -30.220094 2.993272 -0.588996 35.985143 -45.453575 -17.096496 0.491077 -9.715465 12.662276 -12.184979 -9.219432 -10.285594 12.963591 -9.268864 -5.660506 24.246035 -6.466061 -9.974257 -69.036846 58.532639 -56.203268 -5.809253 11.887882 3.404529 18.481590 6.402575 -6.330514 
-0.005400 0.002129 -0.003205 174.786220 23.390856 -12.867176 4.391962 2.787648 2.191991 -3.507699 -9.243749 -1.218175 -0.270283 5.740462 -3.531238 -0.030495 9.125198 -7.150436 -4.009774 -2.435678 1.427070 3.856088 3.969524 2.916398 7.547418 -5.809918 -8.703679 -5.343548 -0.979643 7.963083 -0.137235 1.895946 2.103523 2.584361 -2.496634 3.740918 0.407976 0.283706 0.048274 -1.622653 1.824279 6.076781 2.425775 -1.160611 -13.035627 -14.513944 12.476247 -6.292909 -37.203306 3.078366 6.203162 34.116341 -54.863983 -11.108424 1.111699 -10.556044 12.224044 -13.848447 -9.612354 -12.141957 16.095296 -9.831078 -5.205655 33.070276 -7.580654 -3.366224 -83.250713 65.165148 -68.873978 -6.889673 12.578200 -2.185200 20.067008 6.698050 -6.289434 
-0.006203 0.003152 -0.006262 174.446821 24.036026 -13.301045 4.486863 2.588437 2.052586 -3.790467 -8.984438 -0.997445 0.334151 4.553012 -3.557058 -0.650220 10.245291 -7.664492 -4.115339 -2.649783 1.487349 3.927795 2.961729 3.237211 6.209091 -5.254896 -8.468917 -3.314803 -1.611520 8.384422 -0.966724 2.218120 1.752464 2.866840 -2.724163 6.565888 0.041302 0.208971 -1.708435 0.016912 -0.163364 6.431327 4.135741 -2.621643 -10.642003 -18.339587 9.543830 -5.125759 -40.591778 0.805717 13.531240 21.063323 -62.198989 3.119006 2.031767 -11.189251 13.880047 -15.505611 -10.599517 -13.773607 19.658775 -8.565942 -3.937711 38.916565 -10.158258 3.155914 -73.316947 73.145338 -57.379392 -6.186142 12.729644 -0.251236 21.256621 8.458898 -6.811566 
-0.007671 0.004428 -0.010347 173.903669 25.040166 -14.056185 4.648292 2.627217 2.395425 -3.993649 -9.517667 -1.276998 0.262032 3.905910 -3.726934 -0.248957 10.861543 -7.217661 -4.140573 -2.982217 1.802914 3.993777 2.367859 3.628902 4.161038 -5.145438 -8.175922 -0.102832 -2.413160 8.737016 -1.793048 1.955209 1.268839 3.234443 -3.886352 9.775610 -0.100491 -0.332324 -3.653189 0.916614 -4.272848 8.718346 5.955687 -4.159156 -6.472453 -21.942456 3.752555 -3.154753 -44.770055 -4.752161 20.346715 5.315329 -61.727760 17.982864 4.944331 -9.964082 15.442867 -17.170136 -11.963991 -15.177859 21.839872 -5.204238 -2.241611 41.385128 -10.493548 9.425856 -26.096468 76.357357 -10.026081 -7.152740 11.581343 2.611793 22.429512 10.747953 -7.414098 
-0.010667 0.005336 -0.014922 173.622968 24.917315 -14.596768 4.696154 2.758683 2.891644 -4.116923 -9.144741 -1.625313 0.757436 3.096045 -3.621588 -1.163743 11.965207 -7.418875 -4.190889 -3.192860 1.834372 3.914811 2.450582 4.069759 3.217394 -4.833261 -7.826791 1.769317 -3.039977 9.498407 -2.587651 1.419988 0.657967 3.686929 -5.603025 12.108105 -0.256336 -0.899357 -5.092271 0.376059 -9.617911 13.489572 7.974148 -6.841183 -0.145839 -23.230385 -2.838157 -0.826856 -48.300042 -11.289997 27.710603 -14.457387 -59.969505 39.201262 4.999116 -9.442574 17.028454 -18.225389 -13.123001 -16.339938 22.075651 -2.411994 -1.287389 42.683710 -10.703291 13.937256 8.692051 74.013246 27.364074 -6.646940 10.986650 8.358450 23.707831 12.863785 -8.919692 
-0.015340 0.006178 -0.019636 173.456432 24.290007 -15.494378 4.671269 3.119125 3.798094 -4.236318 -8.667286 -1.563119 0.936993 2.533574 -3.772117 -1.719287 12.649535 -7.851026 -4.280951 -3.223586 2.150505 3.731768 2.990275 4.777704 2.892539 -4.630345 -7.581142 2.196726 -3.137235 10.008175 -3.159178 0.297682 0.501539 4.203965 -8.001153 14.652274 -0.188371 -2.163499 -5.523423 -1.757992 -14.415601 18.862930 9.028599 -9.940915 4.256560 -22.812744 -8.501959 1.832072 -51.984881 -17.729760 32.610568 -28.266367 -59.675773 55.082767 3.990373 -9.350401 17.795288 -19.257681 -13.894407 -17.347133 20.795568 -0.635948 -1.118691 43.889478 -10.780699 15.735642 15.162178 70.887421 34.856484 -5.932162 9.733917 9.749918 24.964825 14.231031 -9.756145 
-0.020499 0.006889 -0.023892 173.555524 22.815031 -15.937278 4.551142 3.723160 4.739821 -4.304637 -7.913343 -1.862526 1.078500 2.491645 -4.036764 -1.965489 13.244222 -7.770357 -4.395855 -2.898205 1.740564 3.575900 3.767438 6.000892 2.575520 -4.179577 -7.497268 2.789780 -3.394464 10.695877 -3.211711 -0.875344 0.968885 4.912453 -9.865724 16.273261 0.161317 -3.286169 -5.329266 -3.826311 -17.358107 23.215760 9.459049 -11.428667 5.913454 -22.799609 -11.308642 3.355495 -54.642785 -22.048895 34.981271 -33.723339 -60.436289 60.753555 4.223115 -8.416284 17.429531 -20.388803 -14.909894 -18.165089 19.966348 -1.224547 -1.566394 43.202902 -12.153078 15.693479 14.735464 70.468567 34.489437 -6.027359 8.408825 10.394115 26.519174 15.529387 -10.748004 
-0.026331 0.008398 -0.030864 174.122022 20.699196 -15.473696 3.888063 4.276769 4.606973 -4.391948 -6.739358 -1.874546 1.034083 3.167953 -4.249058 -1.474822 13.043564 -7.716851 -4.932421 -2.298575 0.110812 3.582133 4.756455 7.393565 2.946651 -3.681588 -7.266514 2.338849 -2.988614 10.712745 -2.363553 -1.935950 2.232946 5.582071 -11.005045 16.037452 0.575223 -4.001939 -4.831332 -5.464924 -18.714876 25.109354 9.388909 -11.174356 6.364995 -22.538823 -12.218411 3.986267 -55.817886 -23.987034 35.634161 -35.712040 -61.223656 62.456009 4.659380 -8.222592 16.445575 -20.984562 -15.442651 -18.148867 19.017585 -2.266798 -2.186699 41.604822 -13.350214 15.467401 15.468044 70.542366 34.137623 -5.006462 8.140578 9.176714 27.060896 16.086803 -11.282286 
